<svg xmlns="http://www.w3.org/2000/svg" width="40" height="40" fill="none" viewBox="0 0 40 40"><path fill="#4d5ae5" d="M40 20a19.94 19.94 0 0 1-5.858 14.142A19.94 19.94 0 0 1 20 40a19.94 19.94 0 0 1-14.142-5.858A19.94 19.94 0 0 1 0 20 19.94 19.94 0 0 1 5.858 5.858 19.94 19.94 0 0 1 20 0a19.94 19.94 0 0 1 14.142 5.858A19.94 19.94 0 0 1 40 20"/><g clip-path="url(#a)"><path fill="#f4f4fd" d="M22.665 14.657h1.46v-2.544A19 19 0 0 0 21.997 12c-2.106 0-3.548 1.325-3.548 3.76V18h-2.324v2.844h2.324V28h2.849v-7.155h2.23L23.882 18h-2.585v-1.96c.001-.822.222-1.384 1.368-1.384"/></g><defs><clipPath id="a"><path fill="#fff" d="M12 12h16v16H12z"/></clipPath></defs></svg>