<svg xmlns="http://www.w3.org/2000/svg" width="40" height="40" fill="none" viewBox="0 0 40 40"><path fill="#4d5ae5" d="M40 20a19.94 19.94 0 0 1-5.858 14.142A19.94 19.94 0 0 1 20 40a19.94 19.94 0 0 1-14.142-5.858A19.94 19.94 0 0 1 0 20 19.94 19.94 0 0 1 5.858 5.858 19.94 19.94 0 0 1 20 0a19.94 19.94 0 0 1 14.142 5.858A19.94 19.94 0 0 1 40 20"/><g fill="#f4f4fd" clip-path="url(#a)"><path d="M27.996 28H28v-5.87c0-2.87-.618-5.082-3.974-5.082-1.613 0-2.696.886-3.138 1.725h-.047v-1.457H17.66V28h3.314v-5.29c0-1.393.264-2.74 1.988-2.74 1.7 0 1.725 1.59 1.725 2.83V28zM12.264 17.318h3.317V28h-3.317zM13.921 12c-1.06 0-1.921.86-1.921 1.92s.86 1.94 1.921 1.94 1.922-.88 1.922-1.94A1.924 1.924 0 0 0 13.92 12"/></g><defs><clipPath id="a"><path fill="#fff" d="M12 12h16v16H12z"/></clipPath></defs></svg>