<svg xmlns="http://www.w3.org/2000/svg" width="40" height="40" fill="none" viewBox="0 0 40 40"><path fill="#4d5ae5" d="M40 20a19.94 19.94 0 0 1-5.858 14.142A19.94 19.94 0 0 1 20 40a19.94 19.94 0 0 1-14.142-5.858A19.94 19.94 0 0 1 0 20 19.94 19.94 0 0 1 5.858 5.858 19.94 19.94 0 0 1 20 0a19.94 19.94 0 0 1 14.142 5.858A19.94 19.94 0 0 1 40 20"/><g fill="#f4f4fd" clip-path="url(#a)"><path d="M27.984 16.704c-.037-.85-.175-1.435-.372-1.941a3.9 3.9 0 0 0-.925-1.419 3.9 3.9 0 0 0-1.416-.922c-.51-.197-1.09-.335-1.94-.372-.857-.04-1.13-.05-3.301-.05-2.173 0-2.445.01-3.298.047-.85.037-1.434.175-1.94.372a3.9 3.9 0 0 0-1.42.925 3.9 3.9 0 0 0-.922 1.416c-.197.51-.334 1.09-.372 1.94-.04.857-.05 1.13-.05 3.302s.01 2.444.047 3.297c.037.85.175 1.435.372 1.941.203.538.519 1.019.925 1.42.4.405.885.721 1.416.921.51.197 1.09.335 1.941.372.853.038 1.125.047 3.298.047s2.444-.01 3.297-.047c.85-.037 1.435-.175 1.941-.372a4.1 4.1 0 0 0 2.341-2.34c.197-.51.335-1.092.372-1.942.038-.853.047-1.125.047-3.297s-.003-2.445-.04-3.298m-1.44 6.532c-.035.782-.166 1.204-.276 1.485a2.66 2.66 0 0 1-1.519 1.52c-.281.109-.706.24-1.484.274-.844.038-1.097.047-3.232.047s-2.391-.01-3.232-.047c-.781-.034-1.203-.165-1.485-.275a2.5 2.5 0 0 1-.919-.597 2.5 2.5 0 0 1-.597-.919c-.11-.281-.24-.706-.275-1.484-.037-.844-.047-1.098-.047-3.232s.01-2.391.047-3.232c.035-.781.166-1.203.275-1.485.128-.347.332-.662.6-.919.26-.265.572-.469.92-.597.28-.11.706-.24 1.484-.275.844-.037 1.097-.047 3.232-.047 2.138 0 2.39.01 3.232.047.781.035 1.203.166 1.485.275.346.128.662.332.918.597.266.26.47.572.597.92.11.28.241.706.276 1.484.037.844.046 1.097.046 3.232 0 2.134-.009 2.385-.046 3.229"/><path d="M20.03 15.891a4.111 4.111 0 0 0 0 8.22 4.111 4.111 0 0 0 0-8.22m0 6.777a2.667 2.667 0 1 1 0-5.334 2.667 2.667 0 0 1 0 5.334M25.262 15.729a.96.96 0 1 1-1.92 0 .96.96 0 0 1 1.92 0"/></g><defs><clipPath id="a"><path fill="#fff" d="M12 12h16v16H12z"/></clipPath></defs></svg>