<svg xmlns="http://www.w3.org/2000/svg" width="40" height="40" fill="none" viewBox="0 0 40 40"><path fill="#4d5ae5" d="M40 20a19.94 19.94 0 0 1-5.858 14.142A19.94 19.94 0 0 1 20 40a19.94 19.94 0 0 1-14.142-5.858A19.94 19.94 0 0 1 0 20 19.94 19.94 0 0 1 5.858 5.858 19.94 19.94 0 0 1 20 0a19.94 19.94 0 0 1 14.142 5.858A19.94 19.94 0 0 1 40 20"/><path fill="#f4f4fd" d="M28 15.039a6.8 6.8 0 0 1-1.89.518 3.26 3.26 0 0 0 1.443-1.813 6.6 6.6 0 0 1-2.08.794 3.28 3.28 0 0 0-5.674 2.243c0 .26.022.51.076.748a9.28 9.28 0 0 1-6.761-3.431 3.285 3.285 0 0 0 1.008 4.384 3.24 3.24 0 0 1-1.482-.404v.036a3.295 3.295 0 0 0 2.628 3.223 3.3 3.3 0 0 1-.86.108 3 3 0 0 1-.621-.056 3.31 3.31 0 0 0 3.065 2.285 6.6 6.6 0 0 1-4.067 1.399c-.269 0-.527-.012-.785-.045a9.23 9.23 0 0 0 5.032 1.472c6.036 0 9.336-5 9.336-9.334q0-.216-.012-.424A6.5 6.5 0 0 0 28 15.039"/></svg>